<mxfile host="app.diagrams.net" modified="2024-01-15T16:12:33.229Z" agent="Mozilla/5.0 (Macintosh; Intel Mac OS X 10_15_7) AppleWebKit/537.36 (KHTML, like Gecko) Chrome/120.0.0.0 Safari/537.36" etag="cBVLSszJzOsQV1veySbB" version="22.1.18" type="github">
  <diagram name="第 1 页" id="5bnzdSQ7di5Hu-kQCLIl">
    <mxGraphModel dx="2261" dy="1955" grid="1" gridSize="10" guides="1" tooltips="1" connect="1" arrows="1" fold="1" page="1" pageScale="1" pageWidth="827" pageHeight="1169" math="0" shadow="0">
      <root>
        <mxCell id="0" />
        <mxCell id="1" parent="0" />
        <mxCell id="RGVM73bukpCADxqD2Ha--13" style="edgeStyle=orthogonalEdgeStyle;rounded=0;orthogonalLoop=1;jettySize=auto;html=1;exitX=0.25;exitY=1;exitDx=0;exitDy=0;entryX=0.25;entryY=0;entryDx=0;entryDy=0;" parent="1" source="v4UVJ5CE6T74EgirfSV9-5" target="v4UVJ5CE6T74EgirfSV9-4" edge="1">
          <mxGeometry relative="1" as="geometry" />
        </mxCell>
        <mxCell id="RGVM73bukpCADxqD2Ha--14" value="opr" style="edgeLabel;html=1;align=center;verticalAlign=middle;resizable=0;points=[];" parent="RGVM73bukpCADxqD2Ha--13" vertex="1" connectable="0">
          <mxGeometry x="-0.2238" relative="1" as="geometry">
            <mxPoint as="offset" />
          </mxGeometry>
        </mxCell>
        <mxCell id="v4UVJ5CE6T74EgirfSV9-5" value="kube-apiserver" style="rounded=1;whiteSpace=wrap;html=1;dashed=1;labelPosition=center;verticalLabelPosition=top;align=center;verticalAlign=bottom;" parent="1" vertex="1">
          <mxGeometry x="-150" y="160" width="1110" height="290" as="geometry" />
        </mxCell>
        <mxCell id="v4UVJ5CE6T74EgirfSV9-1" value="api/v1&lt;br&gt;核心API" style="rounded=1;whiteSpace=wrap;html=1;fillColor=#dae8fc;strokeColor=#6c8ebf;" parent="1" vertex="1">
          <mxGeometry x="-90" y="200" width="300" height="60" as="geometry" />
        </mxCell>
        <mxCell id="v4UVJ5CE6T74EgirfSV9-2" value="authorization" style="rounded=1;whiteSpace=wrap;html=1;fillColor=#dae8fc;strokeColor=#6c8ebf;" parent="1" vertex="1">
          <mxGeometry x="-100" y="280" width="1010" height="60" as="geometry" />
        </mxCell>
        <mxCell id="v4UVJ5CE6T74EgirfSV9-3" value="registy" style="rounded=1;whiteSpace=wrap;html=1;fillColor=#dae8fc;strokeColor=#6c8ebf;" parent="1" vertex="1">
          <mxGeometry x="-100" y="360" width="1010" height="60" as="geometry" />
        </mxCell>
        <mxCell id="RGVM73bukpCADxqD2Ha--11" style="edgeStyle=orthogonalEdgeStyle;rounded=0;orthogonalLoop=1;jettySize=auto;html=1;exitX=0.75;exitY=0;exitDx=0;exitDy=0;entryX=0.75;entryY=1;entryDx=0;entryDy=0;" parent="1" source="v4UVJ5CE6T74EgirfSV9-4" target="v4UVJ5CE6T74EgirfSV9-5" edge="1">
          <mxGeometry relative="1" as="geometry" />
        </mxCell>
        <mxCell id="RGVM73bukpCADxqD2Ha--12" value="event" style="edgeLabel;html=1;align=center;verticalAlign=middle;resizable=0;points=[];" parent="RGVM73bukpCADxqD2Ha--11" vertex="1" connectable="0">
          <mxGeometry x="0.0981" relative="1" as="geometry">
            <mxPoint y="-1" as="offset" />
          </mxGeometry>
        </mxCell>
        <mxCell id="v4UVJ5CE6T74EgirfSV9-4" value="etcd" style="rounded=1;whiteSpace=wrap;html=1;fillColor=#dae8fc;strokeColor=#6c8ebf;" parent="1" vertex="1">
          <mxGeometry x="-150" y="510" width="1110" height="90" as="geometry" />
        </mxCell>
        <mxCell id="v4UVJ5CE6T74EgirfSV9-6" value="/logs&lt;br&gt;日志" style="rounded=1;whiteSpace=wrap;html=1;fillColor=#dae8fc;strokeColor=#6c8ebf;" parent="1" vertex="1">
          <mxGeometry x="250" y="200" width="300" height="60" as="geometry" />
        </mxCell>
        <mxCell id="v4UVJ5CE6T74EgirfSV9-7" value="/apis&lt;br&gt;分组API" style="rounded=1;whiteSpace=wrap;html=1;fillColor=#dae8fc;strokeColor=#6c8ebf;" parent="1" vertex="1">
          <mxGeometry x="600" y="200" width="300" height="60" as="geometry" />
        </mxCell>
        <mxCell id="RGVM73bukpCADxqD2Ha--5" style="edgeStyle=orthogonalEdgeStyle;rounded=0;orthogonalLoop=1;jettySize=auto;html=1;exitX=0.5;exitY=1;exitDx=0;exitDy=0;entryX=0.294;entryY=-0.003;entryDx=0;entryDy=0;startArrow=classic;startFill=1;endArrow=none;endFill=0;entryPerimeter=0;" parent="1" source="RGVM73bukpCADxqD2Ha--1" target="v4UVJ5CE6T74EgirfSV9-5" edge="1">
          <mxGeometry relative="1" as="geometry" />
        </mxCell>
        <mxCell id="RGVM73bukpCADxqD2Ha--10" value="watch" style="edgeLabel;html=1;align=center;verticalAlign=middle;resizable=0;points=[];" parent="RGVM73bukpCADxqD2Ha--5" vertex="1" connectable="0">
          <mxGeometry x="-0.2021" y="-1" relative="1" as="geometry">
            <mxPoint as="offset" />
          </mxGeometry>
        </mxCell>
        <mxCell id="RGVM73bukpCADxqD2Ha--1" value="kube-controller-manager" style="rounded=1;whiteSpace=wrap;html=1;" parent="1" vertex="1">
          <mxGeometry x="50" y="40" width="250" height="60" as="geometry" />
        </mxCell>
        <mxCell id="RGVM73bukpCADxqD2Ha--15" style="edgeStyle=orthogonalEdgeStyle;rounded=0;orthogonalLoop=1;jettySize=auto;html=1;exitX=0.5;exitY=1;exitDx=0;exitDy=0;entryX=0.09;entryY=0.003;entryDx=0;entryDy=0;strokeColor=#FF3333;entryPerimeter=0;" parent="1" source="RGVM73bukpCADxqD2Ha--2" target="v4UVJ5CE6T74EgirfSV9-5" edge="1">
          <mxGeometry relative="1" as="geometry" />
        </mxCell>
        <mxCell id="RGVM73bukpCADxqD2Ha--16" value="curd" style="edgeLabel;html=1;align=center;verticalAlign=middle;resizable=0;points=[];" parent="RGVM73bukpCADxqD2Ha--15" vertex="1" connectable="0">
          <mxGeometry x="-0.3155" y="1" relative="1" as="geometry">
            <mxPoint x="1" as="offset" />
          </mxGeometry>
        </mxCell>
        <mxCell id="RGVM73bukpCADxqD2Ha--2" value="kubectl" style="rounded=1;whiteSpace=wrap;html=1;" parent="1" vertex="1">
          <mxGeometry x="-110" y="40" width="120" height="60" as="geometry" />
        </mxCell>
        <mxCell id="RGVM73bukpCADxqD2Ha--6" style="edgeStyle=orthogonalEdgeStyle;rounded=0;orthogonalLoop=1;jettySize=auto;html=1;exitX=0.5;exitY=1;exitDx=0;exitDy=0;entryX=0.599;entryY=-0.003;entryDx=0;entryDy=0;entryPerimeter=0;startArrow=classic;startFill=1;endArrow=none;endFill=0;" parent="1" source="RGVM73bukpCADxqD2Ha--3" target="v4UVJ5CE6T74EgirfSV9-5" edge="1">
          <mxGeometry relative="1" as="geometry" />
        </mxCell>
        <mxCell id="RGVM73bukpCADxqD2Ha--8" value="watch" style="edgeLabel;html=1;align=center;verticalAlign=middle;resizable=0;points=[];" parent="RGVM73bukpCADxqD2Ha--6" vertex="1" connectable="0">
          <mxGeometry x="-0.0578" relative="1" as="geometry">
            <mxPoint as="offset" />
          </mxGeometry>
        </mxCell>
        <mxCell id="RGVM73bukpCADxqD2Ha--3" value="kube-scheduler" style="rounded=1;whiteSpace=wrap;html=1;" parent="1" vertex="1">
          <mxGeometry x="390" y="40" width="250" height="60" as="geometry" />
        </mxCell>
        <mxCell id="RGVM73bukpCADxqD2Ha--7" style="edgeStyle=orthogonalEdgeStyle;rounded=0;orthogonalLoop=1;jettySize=auto;html=1;exitX=0.5;exitY=1;exitDx=0;exitDy=0;entryX=0.878;entryY=0;entryDx=0;entryDy=0;entryPerimeter=0;endArrow=none;endFill=0;startArrow=classic;startFill=1;" parent="1" source="RGVM73bukpCADxqD2Ha--4" target="v4UVJ5CE6T74EgirfSV9-5" edge="1">
          <mxGeometry relative="1" as="geometry" />
        </mxCell>
        <mxCell id="RGVM73bukpCADxqD2Ha--9" value="watch" style="edgeLabel;html=1;align=center;verticalAlign=middle;resizable=0;points=[];" parent="RGVM73bukpCADxqD2Ha--7" vertex="1" connectable="0">
          <mxGeometry x="-0.323" y="-1" relative="1" as="geometry">
            <mxPoint as="offset" />
          </mxGeometry>
        </mxCell>
        <mxCell id="RGVM73bukpCADxqD2Ha--4" value="kubelet" style="rounded=1;whiteSpace=wrap;html=1;" parent="1" vertex="1">
          <mxGeometry x="700" y="40" width="250" height="60" as="geometry" />
        </mxCell>
        <mxCell id="4fE5z4UuduPDfiOcLxdn-5" value="&lt;h1&gt;kubelet&lt;/h1&gt;&lt;div&gt;与kube-apiserver交互，list-watch机制&lt;/div&gt;&lt;div&gt;1、监听资源的增、删、改&lt;/div&gt;&lt;div&gt;2、上报pod的信息、状态&lt;/div&gt;" style="text;html=1;strokeColor=#d6b656;fillColor=#fff2cc;spacing=5;spacingTop=-20;whiteSpace=wrap;overflow=hidden;rounded=0;" vertex="1" parent="1">
          <mxGeometry x="750" y="-180" width="220" height="100" as="geometry" />
        </mxCell>
        <mxCell id="4fE5z4UuduPDfiOcLxdn-6" value="" style="endArrow=none;dashed=1;html=1;dashPattern=1 3;strokeWidth=2;rounded=0;exitX=0.5;exitY=0;exitDx=0;exitDy=0;strokeColor=#FF3333;entryX=0.25;entryY=1;entryDx=0;entryDy=0;" edge="1" parent="1" source="RGVM73bukpCADxqD2Ha--4" target="4fE5z4UuduPDfiOcLxdn-5">
          <mxGeometry width="50" height="50" relative="1" as="geometry">
            <mxPoint x="780" y="-30" as="sourcePoint" />
            <mxPoint x="830" y="-80" as="targetPoint" />
          </mxGeometry>
        </mxCell>
        <mxCell id="4fE5z4UuduPDfiOcLxdn-7" value="&lt;h1&gt;controller-manager&lt;/h1&gt;&lt;div&gt;与kube-apiserver交互， 负责系统管理&lt;/div&gt;&lt;div&gt;1、监听资源状态变化，调整资源为期望的状态&lt;/div&gt;&lt;div&gt;2、上报pod的信息、状态&lt;/div&gt;" style="text;html=1;strokeColor=#d6b656;fillColor=#fff2cc;spacing=5;spacingTop=-20;whiteSpace=wrap;overflow=hidden;rounded=0;" vertex="1" parent="1">
          <mxGeometry x="50" y="-200" width="270" height="130" as="geometry" />
        </mxCell>
        <mxCell id="4fE5z4UuduPDfiOcLxdn-8" value="&lt;h1&gt;schedule&lt;/h1&gt;&lt;div&gt;与kube-apiserver交互&lt;/div&gt;&lt;div&gt;1、将待调度的pod根据调度算法计算出最佳目标节点，并绑定到目标节点上面&lt;/div&gt;&lt;div&gt;2、上报pod的信息、状态&lt;/div&gt;" style="text;html=1;strokeColor=#d6b656;fillColor=#fff2cc;spacing=5;spacingTop=-20;whiteSpace=wrap;overflow=hidden;rounded=0;" vertex="1" parent="1">
          <mxGeometry x="400" y="-200" width="240" height="130" as="geometry" />
        </mxCell>
      </root>
    </mxGraphModel>
  </diagram>
</mxfile>
